<svg width="422" height="126" viewBox="0 0 422 126" fill="none" xmlns="http://www.w3.org/2000/svg">
<g filter="url(#filter0_d_1_18)">
<path d="M0.738001 9.21999H23.316C27.0613 9.21999 30.4533 9.67933 33.492 10.598C36.5307 11.5167 39.1453 12.8593 41.336 14.626C43.5267 16.322 45.1873 18.442 46.318 20.986C47.5193 23.4593 48.12 26.3213 48.12 29.572C48.12 33.3173 47.4487 36.5327 46.106 39.218C44.7633 41.9033 42.926 44.1647 40.594 46.002C38.262 47.7687 35.506 49.076 32.326 49.924C29.146 50.772 25.7187 51.196 22.044 51.196H13.67V76H0.738001V9.21999ZM13.67 41.126H19.606C21.726 41.126 23.7047 40.9493 25.542 40.596C27.3793 40.2427 28.9693 39.642 30.312 38.794C31.7253 37.946 32.8207 36.8153 33.598 35.402C34.3753 33.9887 34.764 32.222 34.764 30.102C34.764 28.194 34.4107 26.5687 33.704 25.226C32.9973 23.8127 32.008 22.682 30.736 21.834C29.5347 20.9153 28.1213 20.244 26.496 19.82C24.8707 19.396 23.1747 19.184 21.408 19.184H13.67V41.126ZM58.0683 76V0.527999H70.3643V76H58.0683ZM84.8888 30.102C87.9981 28.406 91.1428 27.0987 94.3228 26.18C97.5028 25.1907 101.001 24.696 104.817 24.696C107.785 24.696 110.47 25.0493 112.873 25.756C115.275 26.392 117.36 27.452 119.127 28.936C120.893 30.42 122.236 32.3633 123.155 34.766C124.144 37.098 124.639 39.96 124.639 43.352V76H114.781L113.509 70.7H113.191C109.587 74.94 104.463 77.06 97.8208 77.06C92.5208 77.06 88.3868 75.682 85.4188 72.926C82.4508 70.0993 80.9667 66.46 80.9667 62.008C80.9667 59.1813 81.5674 56.7433 82.7688 54.694C83.9701 52.6447 85.5954 50.9487 87.6448 49.606C89.7648 48.2633 92.2734 47.274 95.1708 46.638C98.0681 45.9313 101.213 45.578 104.605 45.578H112.025V42.08C112.025 39.324 111.212 37.3807 109.587 36.25C107.961 35.0487 105.771 34.448 103.015 34.448C101.036 34.448 98.9161 34.766 96.6548 35.402C94.4641 36.038 92.0261 37.1333 89.3408 38.688L84.8888 30.102ZM112.131 53.528L106.407 53.74C101.743 53.8813 98.4921 54.694 96.6548 56.178C94.8174 57.5913 93.8988 59.3227 93.8988 61.372C93.8988 63.9867 94.6761 65.7533 96.2308 66.672C97.7854 67.5907 99.5874 68.05 101.637 68.05C103.686 68.05 105.629 67.5553 107.467 66.566C109.375 65.506 110.929 64.0573 112.131 62.22V53.528ZM149.655 76H137.147V25.65H146.899L148.489 32.328C150.891 29.9253 153.471 28.0527 156.227 26.71C158.983 25.3673 162.057 24.696 165.449 24.696C170.89 24.696 175.095 26.2153 178.063 29.254C181.031 32.222 182.515 36.462 182.515 41.974V76H170.007V43.458C170.007 40.7727 169.3 38.6173 167.887 36.992C166.544 35.296 164.495 34.448 161.739 34.448C159.689 34.448 157.605 35.0133 155.485 36.144C153.365 37.204 151.421 38.6527 149.655 40.49V76ZM224.155 34.766H210.269V59.994C210.269 62.3967 210.834 64.0573 211.965 64.976C213.166 65.824 214.685 66.248 216.523 66.248C217.936 66.248 219.42 66.1067 220.975 65.824C222.529 65.5413 223.837 65.1527 224.897 64.658L226.805 73.562C225.462 74.1273 223.625 74.6927 221.293 75.258C219.031 75.7527 216.593 76 213.979 76C208.255 76 204.121 74.834 201.577 72.502C199.103 70.17 197.867 66.672 197.867 62.008V34.766H190.235V25.65H197.867V9.962H210.269V25.65H224.155V34.766ZM235.245 69.11C235.245 66.8487 236.022 64.976 237.577 63.492C239.131 61.9373 240.969 61.16 243.089 61.16C245.209 61.16 247.011 61.9373 248.495 63.492C249.979 64.976 250.721 66.8487 250.721 69.11C250.721 71.5833 249.979 73.5267 248.495 74.94C247.011 76.3533 245.209 77.06 243.089 77.06C240.969 77.06 239.131 76.3533 237.577 74.94C236.022 73.5267 235.245 71.5833 235.245 69.11ZM261.807 76V25.65H274.315V76H261.807ZM268.061 14.096C265.87 14.096 264.139 13.46 262.867 12.188C261.666 10.916 261.065 9.326 261.065 7.418C261.065 5.58066 261.701 4.026 262.973 2.754C264.245 1.41133 265.941 0.739996 268.061 0.739996C270.11 0.739996 271.771 1.376 273.043 2.648C274.315 3.92 274.951 5.51 274.951 7.418C274.951 9.326 274.315 10.916 273.043 12.188C271.771 13.46 270.11 14.096 268.061 14.096ZM301.305 76H288.797V25.65H298.549L300.139 32.328C302.542 29.9253 305.121 28.0527 307.877 26.71C310.633 25.3673 313.707 24.696 317.099 24.696C322.54 24.696 326.745 26.2153 329.713 29.254C332.681 32.222 334.165 36.462 334.165 41.974V76H321.657V43.458C321.657 40.7727 320.95 38.6173 319.537 36.992C318.194 35.296 316.145 34.448 313.389 34.448C311.34 34.448 309.255 35.0133 307.135 36.144C305.015 37.204 303.072 38.6527 301.305 40.49V76ZM346.337 42.716C346.337 39.96 346.867 37.4867 347.927 35.296C348.987 33.0347 350.471 31.1267 352.379 29.572C354.287 28.0173 356.513 26.816 359.057 25.968C361.672 25.12 364.534 24.696 367.643 24.696C368.774 24.696 369.975 24.802 371.247 25.014C372.519 25.1553 373.72 25.3673 374.851 25.65H396.369V33.918H392.341L385.133 32.858C386.122 34.13 386.935 35.6493 387.571 37.416C388.278 39.112 388.631 40.8787 388.631 42.716C388.631 45.4013 388.136 47.8393 387.147 50.03C386.158 52.2207 384.709 54.0933 382.801 55.648C380.964 57.2027 378.738 58.404 376.123 59.252C373.579 60.0293 370.717 60.418 367.537 60.418C365.558 60.418 363.862 60.2767 362.449 59.994C360.329 60.9127 359.269 62.2553 359.269 64.022C359.269 66.4247 361.142 67.626 364.887 67.626H376.759C382.271 67.626 386.652 68.8627 389.903 71.336C393.154 73.7387 394.779 77.4487 394.779 82.466C394.779 85.222 394.143 87.7307 392.871 89.992C391.599 92.2533 389.762 94.1967 387.359 95.822C385.027 97.4473 382.2 98.684 378.879 99.532C375.558 100.451 371.848 100.91 367.749 100.91C360.188 100.91 354.216 99.5673 349.835 96.882C345.454 94.2673 343.263 90.416 343.263 85.328C343.263 82.8547 344.04 80.7347 345.595 78.968C347.22 77.272 349.376 75.9647 352.061 75.046C350.93 74.2687 349.906 73.2793 348.987 72.078C348.139 70.806 347.715 69.1807 347.715 67.202C347.715 64.9407 348.386 62.9973 349.729 61.372C351.142 59.676 352.98 58.3333 355.241 57.344C352.909 56.1427 350.824 54.376 348.987 52.044C347.22 49.6413 346.337 46.532 346.337 42.716ZM359.163 77.166C357.82 77.7313 356.76 78.544 355.983 79.604C355.206 80.664 354.817 81.9713 354.817 83.526C354.817 85.9993 355.842 87.9073 357.891 89.25C360.011 90.6633 363.438 91.37 368.173 91.37C370.717 91.37 372.872 91.1227 374.639 90.628C376.476 90.204 377.96 89.6033 379.091 88.826C380.292 88.0487 381.14 87.1653 381.635 86.176C382.2 85.1867 382.483 84.162 382.483 83.102C382.483 80.8407 381.706 79.286 380.151 78.438C378.596 77.59 376.37 77.166 373.473 77.166H359.163ZM376.229 42.716C376.229 39.536 375.416 37.204 373.791 35.72C372.166 34.1653 370.081 33.388 367.537 33.388C364.922 33.388 362.802 34.1653 361.177 35.72C359.552 37.2747 358.739 39.536 358.739 42.504C358.739 45.6133 359.552 47.91 361.177 49.394C362.873 50.878 364.993 51.62 367.537 51.62C370.152 51.62 372.236 50.878 373.791 49.394C375.416 47.91 376.229 45.684 376.229 42.716Z" fill="#333333"/>
</g>
<defs>
<filter id="filter0_d_1_18" x="0.738007" y="0.528015" width="420.631" height="125.382" filterUnits="userSpaceOnUse" color-interpolation-filters="sRGB">
<feFlood flood-opacity="0" result="BackgroundImageFix"/>
<feColorMatrix in="SourceAlpha" type="matrix" values="0 0 0 0 0 0 0 0 0 0 0 0 0 0 0 0 0 0 127 0" result="hardAlpha"/>
<feOffset dx="15" dy="15"/>
<feGaussianBlur stdDeviation="5"/>
<feComposite in2="hardAlpha" operator="out"/>
<feColorMatrix type="matrix" values="0 0 0 0 0 0 0 0 0 0 0 0 0 0 0 0 0 0 0.25 0"/>
<feBlend mode="normal" in2="BackgroundImageFix" result="effect1_dropShadow_1_18"/>
<feBlend mode="normal" in="SourceGraphic" in2="effect1_dropShadow_1_18" result="shape"/>
</filter>
</defs>
</svg>
